G04 (created by PCBNEW-RS274X (2011-12-21 BZR 3253)-stable) date Saturday, February 11, 2012 02:53:21 PM*
G01*
G70*
G90*
%MOIN*%
G04 Gerber Fmt 3.4, Leading zero omitted, Abs format*
%FSLAX34Y34*%
G04 APERTURE LIST*
%ADD10C,0.006000*%
%ADD11R,0.070200X0.070200*%
%ADD12C,0.080200*%
%ADD13O,0.090200X0.062200*%
%ADD14R,0.090200X0.062200*%
%ADD15C,0.090200*%
%ADD16R,0.080200X0.060200*%
%ADD17R,0.060200X0.080200*%
%ADD18R,0.045200X0.020200*%
%ADD19C,0.160200*%
%ADD20C,0.100200*%
%ADD21C,0.141900*%
G04 APERTURE END LIST*
G54D10*
G54D11*
X70000Y-31900D03*
G54D12*
X73000Y-31900D03*
G54D13*
X66500Y-43700D03*
X66500Y-42700D03*
X66500Y-41700D03*
X66500Y-40700D03*
X66500Y-39700D03*
X66500Y-38700D03*
X66500Y-37700D03*
X66500Y-36700D03*
X66500Y-35700D03*
X66500Y-34700D03*
X66500Y-33700D03*
X66500Y-32700D03*
X66500Y-31700D03*
G54D14*
X66500Y-44700D03*
G54D13*
X63500Y-31700D03*
X63500Y-32700D03*
X63500Y-33700D03*
X63500Y-34700D03*
X63500Y-35700D03*
X63500Y-36700D03*
X63500Y-37700D03*
X63500Y-38700D03*
X63500Y-39700D03*
X63500Y-40700D03*
X63500Y-41700D03*
X63500Y-42700D03*
X63500Y-43700D03*
X63500Y-44700D03*
X56050Y-44350D03*
X56050Y-43350D03*
X56050Y-42350D03*
X56050Y-41350D03*
X56050Y-40350D03*
X56050Y-39350D03*
X56050Y-38350D03*
X56050Y-37350D03*
X56050Y-36350D03*
X56050Y-35350D03*
X56050Y-34350D03*
X56050Y-33350D03*
X56050Y-32350D03*
G54D14*
X56050Y-45350D03*
G54D13*
X53050Y-32350D03*
X53050Y-33350D03*
X53050Y-34350D03*
X53050Y-35350D03*
X53050Y-36350D03*
X53050Y-37350D03*
X53050Y-38350D03*
X53050Y-39350D03*
X53050Y-40350D03*
X53050Y-41350D03*
X53050Y-42350D03*
X53050Y-43350D03*
X53050Y-44350D03*
X53050Y-45350D03*
G54D15*
X68300Y-37800D03*
X68300Y-35800D03*
X51350Y-42000D03*
X51350Y-40000D03*
G54D12*
X58900Y-31150D03*
G54D11*
X58900Y-30150D03*
G54D12*
X57900Y-30150D03*
X69550Y-30900D03*
G54D11*
X69550Y-29900D03*
G54D12*
X68550Y-29900D03*
X71850Y-41200D03*
X71850Y-38200D03*
X57250Y-31150D03*
X57250Y-34150D03*
X68900Y-46850D03*
X68900Y-43850D03*
X46925Y-45275D03*
X49925Y-45275D03*
X50450Y-38150D03*
X50450Y-35150D03*
X70750Y-46850D03*
X70750Y-43850D03*
X46600Y-33200D03*
X49600Y-33200D03*
X46600Y-34350D03*
X49600Y-34350D03*
X66000Y-30200D03*
X63000Y-30200D03*
X60150Y-36400D03*
X57150Y-36400D03*
X60150Y-37350D03*
X57150Y-37350D03*
X71850Y-42450D03*
X71850Y-45450D03*
X49900Y-42450D03*
X46900Y-42450D03*
X46950Y-44000D03*
X49950Y-44000D03*
X46650Y-32100D03*
X49650Y-32100D03*
G54D11*
X62350Y-36350D03*
G54D12*
X62350Y-37350D03*
X62350Y-38350D03*
X62350Y-39350D03*
X62350Y-40350D03*
X62350Y-41350D03*
X62350Y-42350D03*
X62350Y-43350D03*
X62350Y-44350D03*
X62350Y-45350D03*
G54D11*
X72950Y-33950D03*
G54D12*
X72950Y-32950D03*
G54D11*
X72950Y-39200D03*
G54D12*
X72950Y-38200D03*
X72950Y-37200D03*
X72950Y-36200D03*
X72950Y-35200D03*
G54D11*
X72950Y-45450D03*
G54D12*
X72950Y-44450D03*
X72950Y-43450D03*
X72950Y-42450D03*
X72950Y-41450D03*
X72950Y-40450D03*
G54D16*
X69300Y-36700D03*
X69300Y-38000D03*
G54D17*
X69700Y-45850D03*
X68400Y-45850D03*
G54D16*
X67050Y-30150D03*
X67050Y-28850D03*
X50300Y-41500D03*
X50300Y-40200D03*
X51600Y-39350D03*
X51600Y-38050D03*
X45350Y-33200D03*
X45350Y-34500D03*
X51500Y-36800D03*
X51500Y-35500D03*
G54D17*
X68400Y-39050D03*
X69700Y-39050D03*
G54D16*
X56250Y-30050D03*
X56250Y-28750D03*
X57050Y-45450D03*
X57050Y-44150D03*
G54D17*
X70850Y-31900D03*
X72150Y-31900D03*
G54D18*
X58550Y-41750D03*
X58550Y-41250D03*
X58550Y-40750D03*
X58550Y-40250D03*
X58550Y-39750D03*
X58550Y-39250D03*
X58550Y-38750D03*
X61050Y-38750D03*
X61050Y-39250D03*
X61050Y-40250D03*
X61050Y-40750D03*
X61050Y-41250D03*
X61050Y-41750D03*
X61050Y-39750D03*
G54D11*
X61200Y-46150D03*
G54D12*
X61200Y-45150D03*
X61200Y-44150D03*
X61200Y-43150D03*
X58200Y-43150D03*
X58200Y-44150D03*
X58200Y-45150D03*
X58200Y-46150D03*
G54D19*
X72450Y-29400D03*
X72450Y-47550D03*
X42000Y-47550D03*
X42000Y-29400D03*
G54D20*
X63600Y-48350D03*
X63600Y-46350D03*
X66600Y-48350D03*
X66600Y-46350D03*
G54D21*
X44948Y-40544D03*
X44929Y-36056D03*
G54D11*
X47429Y-36568D03*
G54D12*
X48433Y-37040D03*
X47429Y-37552D03*
X48433Y-38064D03*
X47429Y-38536D03*
X48433Y-39048D03*
X47429Y-39560D03*
X48433Y-40032D03*
X43354Y-35682D03*
X43354Y-36686D03*
X43354Y-39914D03*
X43354Y-40918D03*
G54D20*
X46110Y-35288D03*
X46110Y-41351D03*
M02*
