M48
INCH,TZ
T1C0.025
T2C0.030
T3C0.032
T4C0.035
T5C0.039
T6C0.063
T7C0.120
T8C0.128
%
G90
G05
T1
X5.410Y-3.235
X5.410Y-3.655
X5.415Y-3.005
X5.415Y-3.185
X6.115Y-3.205
X6.115Y-3.710
X6.515Y-3.730
X6.515Y-3.860
T2
X7.295Y-4.045
X7.295Y-4.145
X7.295Y-4.245
X7.295Y-4.345
X7.295Y-4.445
T3
X4.660Y-3.320
X4.660Y-3.435
X4.665Y-3.210
X4.690Y-4.245
X4.692Y-4.527
X4.695Y-4.400
X4.960Y-3.320
X4.960Y-3.435
X4.965Y-3.210
X4.990Y-4.245
X4.993Y-4.527
X4.995Y-4.400
X5.045Y-3.515
X5.045Y-3.815
X5.135Y-4.000
X5.135Y-4.200
X5.305Y-3.235
X5.305Y-3.335
X5.305Y-3.435
X5.305Y-3.535
X5.305Y-3.635
X5.305Y-3.735
X5.305Y-3.835
X5.305Y-3.935
X5.305Y-4.035
X5.305Y-4.135
X5.305Y-4.235
X5.305Y-4.335
X5.305Y-4.435
X5.305Y-4.535
X5.605Y-3.235
X5.605Y-3.335
X5.605Y-3.435
X5.605Y-3.535
X5.605Y-3.635
X5.605Y-3.735
X5.605Y-3.835
X5.605Y-3.935
X5.605Y-4.035
X5.605Y-4.135
X5.605Y-4.235
X5.605Y-4.335
X5.605Y-4.435
X5.605Y-4.535
X5.715Y-3.640
X5.715Y-3.735
X5.725Y-3.115
X5.725Y-3.415
X5.790Y-3.015
X5.820Y-4.315
X5.820Y-4.415
X5.820Y-4.515
X5.820Y-4.615
X5.890Y-3.015
X5.890Y-3.115
X6.015Y-3.640
X6.015Y-3.735
X6.090Y-2.990
X6.120Y-4.315
X6.120Y-4.415
X6.120Y-4.515
X6.120Y-4.615
X6.190Y-2.990
X6.235Y-3.635
X6.235Y-3.735
X6.235Y-3.835
X6.235Y-3.935
X6.235Y-4.035
X6.235Y-4.135
X6.235Y-4.235
X6.235Y-4.335
X6.235Y-4.435
X6.235Y-4.535
X6.300Y-3.020
X6.350Y-3.170
X6.350Y-3.270
X6.350Y-3.370
X6.350Y-3.470
X6.350Y-3.570
X6.350Y-3.670
X6.350Y-3.770
X6.350Y-3.870
X6.350Y-3.970
X6.350Y-4.070
X6.350Y-4.170
X6.350Y-4.270
X6.350Y-4.370
X6.350Y-4.470
X6.360Y-4.635
X6.360Y-4.835
X6.600Y-3.020
X6.650Y-3.170
X6.650Y-3.270
X6.650Y-3.370
X6.650Y-3.470
X6.650Y-3.570
X6.650Y-3.670
X6.650Y-3.770
X6.650Y-3.870
X6.650Y-3.970
X6.650Y-4.070
X6.650Y-4.170
X6.650Y-4.270
X6.650Y-4.370
X6.650Y-4.470
X6.660Y-4.635
X6.660Y-4.835
X6.800Y-4.215
X6.800Y-4.315
X6.830Y-3.580
X6.830Y-3.780
X6.855Y-2.990
X6.890Y-4.385
X6.890Y-4.685
X6.955Y-2.990
X6.955Y-3.090
X6.995Y-4.215
X6.995Y-4.315
X7.000Y-3.190
X7.075Y-4.385
X7.075Y-4.685
X7.185Y-3.820
X7.185Y-4.120
X7.185Y-4.245
X7.185Y-4.545
X7.295Y-3.295
X7.295Y-3.395
X7.295Y-3.520
X7.295Y-3.620
X7.295Y-3.720
X7.295Y-3.820
X7.295Y-3.920
X7.295Y-4.545
X7.300Y-3.190
T4
X4.743Y-3.657
X4.743Y-3.755
X4.743Y-3.854
X4.743Y-3.956
X4.843Y-3.704
X4.843Y-3.806
X4.843Y-3.905
X4.843Y-4.003
T5
X4.335Y-3.568
X4.335Y-3.669
X4.335Y-3.991
X4.335Y-4.092
T6
X4.611Y-3.529
X4.611Y-4.135
T7
X4.200Y-2.940
X4.200Y-4.755
X7.245Y-2.940
X7.245Y-4.755
T8
X4.493Y-3.606
X4.495Y-4.054
T0
M30
