G04 (created by PCBNEW-RS274X (2011-12-21 BZR 3253)-stable) date Saturday, February 11, 2012 02:53:21 PM*
G01*
G70*
G90*
%MOIN*%
G04 Gerber Fmt 3.4, Leading zero omitted, Abs format*
%FSLAX34Y34*%
G04 APERTURE LIST*
%ADD10C,0.006000*%
%ADD11C,0.012000*%
%ADD12C,0.015000*%
%ADD13C,0.010000*%
%ADD14C,0.008000*%
%ADD15C,0.003000*%
%ADD16C,0.005000*%
%ADD17C,0.011300*%
%ADD18C,0.003500*%
%ADD19C,0.010700*%
G04 APERTURE END LIST*
G54D10*
G54D11*
X70000Y-31900D02*
X70300Y-31900D01*
X70300Y-31900D02*
X70300Y-32300D01*
X70300Y-32300D02*
X72700Y-32300D01*
X72700Y-32300D02*
X72700Y-31900D01*
X72700Y-31900D02*
X73000Y-31900D01*
X72700Y-31900D02*
X72700Y-31500D01*
X72700Y-31500D02*
X70300Y-31500D01*
X70300Y-31500D02*
X70300Y-31900D01*
X70500Y-32300D02*
X70500Y-31500D01*
X70600Y-31500D02*
X70600Y-32300D01*
G54D12*
X64000Y-45700D02*
X64000Y-30700D01*
X64000Y-30700D02*
X66000Y-30700D01*
X66000Y-30700D02*
X66000Y-45700D01*
X66000Y-45700D02*
X64000Y-45700D01*
X64500Y-45700D02*
X64500Y-45200D01*
X64500Y-45200D02*
X65500Y-45200D01*
X65500Y-45200D02*
X65500Y-45700D01*
X53550Y-46350D02*
X53550Y-31350D01*
X53550Y-31350D02*
X55550Y-31350D01*
X55550Y-31350D02*
X55550Y-46350D01*
X55550Y-46350D02*
X53550Y-46350D01*
X54050Y-46350D02*
X54050Y-45850D01*
X54050Y-45850D02*
X55050Y-45850D01*
X55050Y-45850D02*
X55050Y-46350D01*
G54D10*
X67800Y-39550D02*
X67300Y-39050D01*
X67300Y-34550D02*
X67800Y-34050D01*
X68800Y-34050D02*
X69300Y-34550D01*
X68800Y-39550D02*
X69300Y-39050D01*
X67300Y-39050D02*
X67300Y-34550D01*
X67800Y-39550D02*
X68800Y-39550D01*
X69300Y-39050D02*
X69300Y-34550D01*
X68800Y-34050D02*
X67800Y-34050D01*
X50850Y-43750D02*
X50350Y-43250D01*
X50350Y-38750D02*
X50850Y-38250D01*
X51850Y-38250D02*
X52350Y-38750D01*
X51850Y-43750D02*
X52350Y-43250D01*
X50350Y-43250D02*
X50350Y-38750D01*
X50850Y-43750D02*
X51850Y-43750D01*
X52350Y-43250D02*
X52350Y-38750D01*
X51850Y-38250D02*
X50850Y-38250D01*
G54D13*
X69450Y-43370D02*
X70450Y-43370D01*
G54D10*
X70334Y-42290D02*
X70292Y-42258D01*
X70248Y-42230D01*
X70201Y-42206D01*
X70153Y-42186D01*
X70103Y-42170D01*
X70052Y-42159D01*
X70000Y-42153D01*
X69950Y-42150D01*
X69950Y-42151D02*
X69898Y-42154D01*
X69846Y-42161D01*
X69795Y-42172D01*
X69746Y-42188D01*
X69697Y-42208D01*
X69651Y-42232D01*
X69607Y-42260D01*
X69565Y-42292D01*
X69553Y-42303D01*
X69950Y-43349D02*
X70002Y-43346D01*
X70054Y-43339D01*
X70105Y-43328D01*
X70154Y-43312D01*
X70203Y-43292D01*
X70249Y-43268D01*
X70293Y-43240D01*
X70335Y-43208D01*
X70339Y-43204D01*
X69566Y-43210D02*
X69608Y-43242D01*
X69652Y-43270D01*
X69699Y-43294D01*
X69747Y-43314D01*
X69797Y-43330D01*
X69848Y-43341D01*
X69900Y-43347D01*
X69950Y-43350D01*
X70299Y-43237D02*
X70340Y-43205D01*
X70378Y-43169D01*
X70413Y-43130D01*
X70445Y-43088D01*
X70472Y-43044D01*
X70496Y-42997D01*
X70515Y-42949D01*
X70531Y-42899D01*
X70541Y-42847D01*
X70548Y-42796D01*
X70550Y-42750D01*
X70550Y-42750D02*
X70547Y-42698D01*
X70540Y-42646D01*
X70529Y-42595D01*
X70513Y-42545D01*
X70493Y-42497D01*
X70469Y-42451D01*
X70441Y-42406D01*
X70409Y-42365D01*
X70374Y-42326D01*
X70335Y-42291D01*
X70310Y-42271D01*
X69351Y-42750D02*
X69354Y-42802D01*
X69361Y-42854D01*
X69372Y-42905D01*
X69388Y-42954D01*
X69408Y-43003D01*
X69432Y-43049D01*
X69460Y-43093D01*
X69492Y-43135D01*
X69527Y-43173D01*
X69565Y-43208D01*
X69583Y-43222D01*
X69582Y-42277D02*
X69542Y-42311D01*
X69505Y-42348D01*
X69472Y-42389D01*
X69442Y-42432D01*
X69416Y-42477D01*
X69395Y-42525D01*
X69377Y-42574D01*
X69364Y-42625D01*
X69355Y-42676D01*
X69351Y-42729D01*
X69350Y-42750D01*
X70200Y-42750D02*
X70199Y-42729D01*
X70196Y-42707D01*
X70191Y-42686D01*
X70184Y-42665D01*
X70176Y-42645D01*
X70166Y-42626D01*
X70154Y-42607D01*
X70141Y-42590D01*
X70126Y-42574D01*
X70110Y-42559D01*
X70093Y-42546D01*
X70075Y-42534D01*
X70055Y-42524D01*
X70035Y-42516D01*
X70014Y-42509D01*
X69993Y-42504D01*
X69971Y-42501D01*
X69950Y-42500D01*
X70350Y-42750D02*
X70348Y-42716D01*
X70343Y-42681D01*
X70336Y-42647D01*
X70325Y-42614D01*
X70312Y-42581D01*
X70296Y-42551D01*
X70277Y-42521D01*
X70256Y-42493D01*
X70232Y-42468D01*
X70207Y-42444D01*
X70179Y-42423D01*
X70150Y-42404D01*
X70119Y-42388D01*
X70086Y-42375D01*
X70053Y-42364D01*
X70019Y-42357D01*
X69984Y-42352D01*
X69950Y-42350D01*
X69700Y-42750D02*
X69701Y-42771D01*
X69704Y-42793D01*
X69709Y-42814D01*
X69716Y-42835D01*
X69724Y-42855D01*
X69734Y-42874D01*
X69746Y-42893D01*
X69759Y-42910D01*
X69774Y-42926D01*
X69790Y-42941D01*
X69807Y-42954D01*
X69826Y-42966D01*
X69845Y-42976D01*
X69865Y-42984D01*
X69886Y-42991D01*
X69907Y-42996D01*
X69929Y-42999D01*
X69950Y-43000D01*
X69550Y-42750D02*
X69552Y-42784D01*
X69557Y-42819D01*
X69564Y-42853D01*
X69575Y-42886D01*
X69588Y-42919D01*
X69604Y-42949D01*
X69623Y-42979D01*
X69644Y-43007D01*
X69668Y-43032D01*
X69693Y-43056D01*
X69721Y-43077D01*
X69751Y-43096D01*
X69781Y-43112D01*
X69814Y-43125D01*
X69847Y-43136D01*
X69881Y-43143D01*
X69916Y-43148D01*
X69950Y-43150D01*
G54D13*
X70463Y-43363D02*
X70514Y-43316D01*
X70561Y-43265D01*
X70604Y-43210D01*
X70642Y-43151D01*
X70674Y-43089D01*
X70701Y-43024D01*
X70722Y-42958D01*
X70737Y-42890D01*
X70746Y-42821D01*
X70749Y-42751D01*
X70750Y-42750D01*
X70749Y-42750D02*
X70745Y-42681D01*
X70736Y-42612D01*
X70721Y-42544D01*
X70700Y-42477D01*
X70674Y-42413D01*
X70641Y-42351D01*
X70604Y-42292D01*
X70562Y-42237D01*
X70514Y-42186D01*
X70463Y-42138D01*
X70408Y-42096D01*
X70349Y-42059D01*
X70326Y-42046D01*
X69153Y-42751D02*
X69156Y-42820D01*
X69165Y-42889D01*
X69180Y-42957D01*
X69201Y-43024D01*
X69228Y-43088D01*
X69260Y-43150D01*
X69298Y-43208D01*
X69340Y-43264D01*
X69387Y-43315D01*
X69435Y-43359D01*
X69553Y-42056D02*
X69494Y-42094D01*
X69438Y-42136D01*
X69387Y-42183D01*
X69339Y-42234D01*
X69297Y-42289D01*
X69259Y-42348D01*
X69227Y-42410D01*
X69200Y-42474D01*
X69178Y-42541D01*
X69163Y-42609D01*
X69154Y-42678D01*
X69151Y-42748D01*
X69150Y-42750D01*
X70329Y-42046D02*
X70266Y-42016D01*
X70201Y-41991D01*
X70134Y-41972D01*
X70065Y-41959D01*
X69996Y-41952D01*
X69950Y-41950D01*
X69950Y-41951D02*
X69881Y-41955D01*
X69812Y-41964D01*
X69744Y-41979D01*
X69677Y-42000D01*
X69613Y-42026D01*
X69551Y-42059D01*
X69532Y-42070D01*
X67500Y-43370D02*
X68500Y-43370D01*
G54D10*
X68384Y-42290D02*
X68342Y-42258D01*
X68298Y-42230D01*
X68251Y-42206D01*
X68203Y-42186D01*
X68153Y-42170D01*
X68102Y-42159D01*
X68050Y-42153D01*
X68000Y-42150D01*
X68000Y-42151D02*
X67948Y-42154D01*
X67896Y-42161D01*
X67845Y-42172D01*
X67796Y-42188D01*
X67747Y-42208D01*
X67701Y-42232D01*
X67657Y-42260D01*
X67615Y-42292D01*
X67603Y-42303D01*
X68000Y-43349D02*
X68052Y-43346D01*
X68104Y-43339D01*
X68155Y-43328D01*
X68204Y-43312D01*
X68253Y-43292D01*
X68299Y-43268D01*
X68343Y-43240D01*
X68385Y-43208D01*
X68389Y-43204D01*
X67616Y-43210D02*
X67658Y-43242D01*
X67702Y-43270D01*
X67749Y-43294D01*
X67797Y-43314D01*
X67847Y-43330D01*
X67898Y-43341D01*
X67950Y-43347D01*
X68000Y-43350D01*
X68349Y-43237D02*
X68390Y-43205D01*
X68428Y-43169D01*
X68463Y-43130D01*
X68495Y-43088D01*
X68522Y-43044D01*
X68546Y-42997D01*
X68565Y-42949D01*
X68581Y-42899D01*
X68591Y-42847D01*
X68598Y-42796D01*
X68600Y-42750D01*
X68600Y-42750D02*
X68597Y-42698D01*
X68590Y-42646D01*
X68579Y-42595D01*
X68563Y-42545D01*
X68543Y-42497D01*
X68519Y-42451D01*
X68491Y-42406D01*
X68459Y-42365D01*
X68424Y-42326D01*
X68385Y-42291D01*
X68360Y-42271D01*
X67401Y-42750D02*
X67404Y-42802D01*
X67411Y-42854D01*
X67422Y-42905D01*
X67438Y-42954D01*
X67458Y-43003D01*
X67482Y-43049D01*
X67510Y-43093D01*
X67542Y-43135D01*
X67577Y-43173D01*
X67615Y-43208D01*
X67633Y-43222D01*
X67632Y-42277D02*
X67592Y-42311D01*
X67555Y-42348D01*
X67522Y-42389D01*
X67492Y-42432D01*
X67466Y-42477D01*
X67445Y-42525D01*
X67427Y-42574D01*
X67414Y-42625D01*
X67405Y-42676D01*
X67401Y-42729D01*
X67400Y-42750D01*
X68250Y-42750D02*
X68249Y-42729D01*
X68246Y-42707D01*
X68241Y-42686D01*
X68234Y-42665D01*
X68226Y-42645D01*
X68216Y-42626D01*
X68204Y-42607D01*
X68191Y-42590D01*
X68176Y-42574D01*
X68160Y-42559D01*
X68143Y-42546D01*
X68125Y-42534D01*
X68105Y-42524D01*
X68085Y-42516D01*
X68064Y-42509D01*
X68043Y-42504D01*
X68021Y-42501D01*
X68000Y-42500D01*
X68400Y-42750D02*
X68398Y-42716D01*
X68393Y-42681D01*
X68386Y-42647D01*
X68375Y-42614D01*
X68362Y-42581D01*
X68346Y-42551D01*
X68327Y-42521D01*
X68306Y-42493D01*
X68282Y-42468D01*
X68257Y-42444D01*
X68229Y-42423D01*
X68200Y-42404D01*
X68169Y-42388D01*
X68136Y-42375D01*
X68103Y-42364D01*
X68069Y-42357D01*
X68034Y-42352D01*
X68000Y-42350D01*
X67750Y-42750D02*
X67751Y-42771D01*
X67754Y-42793D01*
X67759Y-42814D01*
X67766Y-42835D01*
X67774Y-42855D01*
X67784Y-42874D01*
X67796Y-42893D01*
X67809Y-42910D01*
X67824Y-42926D01*
X67840Y-42941D01*
X67857Y-42954D01*
X67876Y-42966D01*
X67895Y-42976D01*
X67915Y-42984D01*
X67936Y-42991D01*
X67957Y-42996D01*
X67979Y-42999D01*
X68000Y-43000D01*
X67600Y-42750D02*
X67602Y-42784D01*
X67607Y-42819D01*
X67614Y-42853D01*
X67625Y-42886D01*
X67638Y-42919D01*
X67654Y-42949D01*
X67673Y-42979D01*
X67694Y-43007D01*
X67718Y-43032D01*
X67743Y-43056D01*
X67771Y-43077D01*
X67801Y-43096D01*
X67831Y-43112D01*
X67864Y-43125D01*
X67897Y-43136D01*
X67931Y-43143D01*
X67966Y-43148D01*
X68000Y-43150D01*
G54D13*
X68513Y-43363D02*
X68564Y-43316D01*
X68611Y-43265D01*
X68654Y-43210D01*
X68692Y-43151D01*
X68724Y-43089D01*
X68751Y-43024D01*
X68772Y-42958D01*
X68787Y-42890D01*
X68796Y-42821D01*
X68799Y-42751D01*
X68800Y-42750D01*
X68799Y-42750D02*
X68795Y-42681D01*
X68786Y-42612D01*
X68771Y-42544D01*
X68750Y-42477D01*
X68724Y-42413D01*
X68691Y-42351D01*
X68654Y-42292D01*
X68612Y-42237D01*
X68564Y-42186D01*
X68513Y-42138D01*
X68458Y-42096D01*
X68399Y-42059D01*
X68376Y-42046D01*
X67203Y-42751D02*
X67206Y-42820D01*
X67215Y-42889D01*
X67230Y-42957D01*
X67251Y-43024D01*
X67278Y-43088D01*
X67310Y-43150D01*
X67348Y-43208D01*
X67390Y-43264D01*
X67437Y-43315D01*
X67485Y-43359D01*
X67603Y-42056D02*
X67544Y-42094D01*
X67488Y-42136D01*
X67437Y-42183D01*
X67389Y-42234D01*
X67347Y-42289D01*
X67309Y-42348D01*
X67277Y-42410D01*
X67250Y-42474D01*
X67228Y-42541D01*
X67213Y-42609D01*
X67204Y-42678D01*
X67201Y-42748D01*
X67200Y-42750D01*
X68379Y-42046D02*
X68316Y-42016D01*
X68251Y-41991D01*
X68184Y-41972D01*
X68115Y-41959D01*
X68046Y-41952D01*
X68000Y-41950D01*
X68000Y-41951D02*
X67931Y-41955D01*
X67862Y-41964D01*
X67794Y-41979D01*
X67727Y-42000D01*
X67663Y-42026D01*
X67601Y-42059D01*
X67582Y-42070D01*
G54D14*
X60280Y-29150D02*
X60280Y-30650D01*
G54D15*
X62007Y-29900D02*
X61993Y-30037D01*
X61953Y-30169D01*
X61888Y-30291D01*
X61801Y-30398D01*
X61695Y-30486D01*
X61573Y-30551D01*
X61442Y-30592D01*
X61304Y-30606D01*
X61168Y-30594D01*
X61036Y-30555D01*
X60913Y-30491D01*
X60806Y-30405D01*
X60717Y-30299D01*
X60651Y-30178D01*
X60609Y-30046D01*
X60594Y-29909D01*
X60605Y-29773D01*
X60643Y-29640D01*
X60706Y-29518D01*
X60792Y-29409D01*
X60897Y-29320D01*
X61017Y-29253D01*
X61149Y-29210D01*
X61286Y-29194D01*
X61422Y-29204D01*
X61555Y-29241D01*
X61678Y-29304D01*
X61787Y-29389D01*
X61877Y-29493D01*
X61945Y-29613D01*
X61989Y-29744D01*
X62006Y-29881D01*
X62007Y-29900D01*
G54D13*
X60301Y-30650D02*
X60370Y-30734D01*
X60446Y-30812D01*
X60529Y-30883D01*
X60618Y-30947D01*
X60712Y-31002D01*
X60810Y-31049D01*
X60912Y-31088D01*
X61017Y-31117D01*
X61124Y-31137D01*
X61233Y-31148D01*
X61341Y-31149D01*
X61450Y-31140D01*
X61557Y-31123D01*
X61663Y-31096D01*
X61766Y-31059D01*
X61865Y-31014D01*
X61960Y-30961D01*
X62050Y-30899D01*
X62134Y-30830D01*
X62212Y-30754D01*
X62283Y-30671D01*
X62347Y-30582D01*
X62402Y-30488D01*
X62449Y-30390D01*
X62488Y-30288D01*
X62517Y-30183D01*
X62537Y-30076D01*
X62548Y-29967D01*
X62549Y-29859D01*
X62540Y-29750D01*
X62523Y-29643D01*
X62496Y-29537D01*
X62459Y-29434D01*
X62414Y-29335D01*
X62361Y-29240D01*
X62299Y-29150D01*
X62230Y-29066D01*
X62154Y-28988D01*
X62071Y-28917D01*
X61982Y-28853D01*
X61888Y-28798D01*
X61790Y-28751D01*
X61688Y-28712D01*
X61583Y-28683D01*
X61476Y-28663D01*
X61367Y-28652D01*
X61259Y-28651D01*
X61150Y-28660D01*
X61043Y-28677D01*
X60937Y-28704D01*
X60834Y-28741D01*
X60735Y-28786D01*
X60640Y-28839D01*
X60550Y-28901D01*
X60466Y-28970D01*
X60388Y-29046D01*
X60317Y-29129D01*
X60301Y-29150D01*
G54D10*
X61300Y-30350D02*
X61339Y-30348D01*
X61378Y-30343D01*
X61416Y-30334D01*
X61453Y-30322D01*
X61490Y-30307D01*
X61525Y-30289D01*
X61558Y-30268D01*
X61589Y-30244D01*
X61618Y-30218D01*
X61644Y-30189D01*
X61668Y-30158D01*
X61689Y-30124D01*
X61707Y-30090D01*
X61722Y-30053D01*
X61734Y-30016D01*
X61743Y-29978D01*
X61748Y-29939D01*
X61750Y-29900D01*
X61300Y-29450D02*
X61261Y-29452D01*
X61222Y-29457D01*
X61184Y-29466D01*
X61147Y-29478D01*
X61110Y-29493D01*
X61076Y-29511D01*
X61042Y-29532D01*
X61011Y-29556D01*
X60982Y-29582D01*
X60956Y-29611D01*
X60932Y-29642D01*
X60911Y-29676D01*
X60893Y-29710D01*
X60878Y-29747D01*
X60866Y-29784D01*
X60857Y-29822D01*
X60852Y-29861D01*
X60850Y-29900D01*
X61300Y-30550D02*
X61356Y-30547D01*
X61412Y-30540D01*
X61468Y-30527D01*
X61522Y-30510D01*
X61574Y-30489D01*
X61625Y-30462D01*
X61672Y-30432D01*
X61717Y-30397D01*
X61759Y-30359D01*
X61797Y-30317D01*
X61832Y-30272D01*
X61862Y-30224D01*
X61889Y-30174D01*
X61910Y-30122D01*
X61927Y-30068D01*
X61940Y-30012D01*
X61947Y-29956D01*
X61950Y-29900D01*
X61300Y-29250D02*
X61244Y-29253D01*
X61188Y-29260D01*
X61132Y-29273D01*
X61078Y-29290D01*
X61026Y-29311D01*
X60976Y-29338D01*
X60928Y-29368D01*
X60883Y-29403D01*
X60841Y-29441D01*
X60803Y-29483D01*
X60768Y-29528D01*
X60738Y-29576D01*
X60711Y-29626D01*
X60690Y-29678D01*
X60673Y-29732D01*
X60660Y-29788D01*
X60653Y-29844D01*
X60650Y-29900D01*
X61300Y-30750D02*
X61374Y-30746D01*
X61447Y-30737D01*
X61519Y-30721D01*
X61590Y-30698D01*
X61659Y-30670D01*
X61725Y-30636D01*
X61787Y-30596D01*
X61846Y-30551D01*
X61901Y-30501D01*
X61951Y-30446D01*
X61996Y-30387D01*
X62036Y-30324D01*
X62070Y-30259D01*
X62098Y-30190D01*
X62121Y-30119D01*
X62137Y-30047D01*
X62146Y-29974D01*
X62150Y-29900D01*
X61300Y-29050D02*
X61226Y-29054D01*
X61153Y-29063D01*
X61081Y-29079D01*
X61010Y-29102D01*
X60941Y-29130D01*
X60876Y-29164D01*
X60813Y-29204D01*
X60754Y-29249D01*
X60699Y-29299D01*
X60649Y-29354D01*
X60604Y-29413D01*
X60564Y-29476D01*
X60530Y-29541D01*
X60502Y-29610D01*
X60479Y-29681D01*
X60463Y-29753D01*
X60454Y-29826D01*
X60450Y-29900D01*
G54D11*
X57400Y-30150D02*
X58900Y-31650D01*
X58900Y-31650D02*
X59400Y-31650D01*
X59400Y-31650D02*
X59900Y-31150D01*
X59900Y-31150D02*
X59900Y-30150D01*
X59900Y-30150D02*
X58900Y-29150D01*
X58900Y-29150D02*
X57900Y-29150D01*
X57900Y-29150D02*
X57400Y-29650D01*
X57400Y-29650D02*
X57400Y-30150D01*
X68050Y-29900D02*
X69550Y-31400D01*
X69550Y-31400D02*
X70050Y-31400D01*
X70050Y-31400D02*
X70550Y-30900D01*
X70550Y-30900D02*
X70550Y-29900D01*
X70550Y-29900D02*
X69550Y-28900D01*
X69550Y-28900D02*
X68550Y-28900D01*
X68550Y-28900D02*
X68050Y-29400D01*
X68050Y-29400D02*
X68050Y-29900D01*
X71850Y-41200D02*
X71850Y-41000D01*
X71850Y-38200D02*
X71850Y-38400D01*
X71850Y-38400D02*
X71450Y-38400D01*
X71450Y-38400D02*
X71450Y-41000D01*
X71450Y-41000D02*
X72250Y-41000D01*
X72250Y-41000D02*
X72250Y-38400D01*
X72250Y-38400D02*
X71850Y-38400D01*
X71650Y-41000D02*
X71450Y-40800D01*
X57250Y-31150D02*
X57250Y-31350D01*
X57250Y-34150D02*
X57250Y-33950D01*
X57250Y-33950D02*
X57650Y-33950D01*
X57650Y-33950D02*
X57650Y-31350D01*
X57650Y-31350D02*
X56850Y-31350D01*
X56850Y-31350D02*
X56850Y-33950D01*
X56850Y-33950D02*
X57250Y-33950D01*
X57450Y-31350D02*
X57650Y-31550D01*
X68900Y-46850D02*
X68900Y-46650D01*
X68900Y-43850D02*
X68900Y-44050D01*
X68900Y-44050D02*
X68500Y-44050D01*
X68500Y-44050D02*
X68500Y-46650D01*
X68500Y-46650D02*
X69300Y-46650D01*
X69300Y-46650D02*
X69300Y-44050D01*
X69300Y-44050D02*
X68900Y-44050D01*
X68700Y-46650D02*
X68500Y-46450D01*
X46925Y-45275D02*
X47125Y-45275D01*
X49925Y-45275D02*
X49725Y-45275D01*
X49725Y-45275D02*
X49725Y-44875D01*
X49725Y-44875D02*
X47125Y-44875D01*
X47125Y-44875D02*
X47125Y-45675D01*
X47125Y-45675D02*
X49725Y-45675D01*
X49725Y-45675D02*
X49725Y-45275D01*
X47125Y-45075D02*
X47325Y-44875D01*
X50450Y-38150D02*
X50450Y-37950D01*
X50450Y-35150D02*
X50450Y-35350D01*
X50450Y-35350D02*
X50050Y-35350D01*
X50050Y-35350D02*
X50050Y-37950D01*
X50050Y-37950D02*
X50850Y-37950D01*
X50850Y-37950D02*
X50850Y-35350D01*
X50850Y-35350D02*
X50450Y-35350D01*
X50250Y-37950D02*
X50050Y-37750D01*
X70750Y-46850D02*
X70750Y-46650D01*
X70750Y-43850D02*
X70750Y-44050D01*
X70750Y-44050D02*
X70350Y-44050D01*
X70350Y-44050D02*
X70350Y-46650D01*
X70350Y-46650D02*
X71150Y-46650D01*
X71150Y-46650D02*
X71150Y-44050D01*
X71150Y-44050D02*
X70750Y-44050D01*
X70550Y-46650D02*
X70350Y-46450D01*
X46600Y-33200D02*
X46800Y-33200D01*
X49600Y-33200D02*
X49400Y-33200D01*
X49400Y-33200D02*
X49400Y-32800D01*
X49400Y-32800D02*
X46800Y-32800D01*
X46800Y-32800D02*
X46800Y-33600D01*
X46800Y-33600D02*
X49400Y-33600D01*
X49400Y-33600D02*
X49400Y-33200D01*
X46800Y-33000D02*
X47000Y-32800D01*
X46600Y-34350D02*
X46800Y-34350D01*
X49600Y-34350D02*
X49400Y-34350D01*
X49400Y-34350D02*
X49400Y-33950D01*
X49400Y-33950D02*
X46800Y-33950D01*
X46800Y-33950D02*
X46800Y-34750D01*
X46800Y-34750D02*
X49400Y-34750D01*
X49400Y-34750D02*
X49400Y-34350D01*
X46800Y-34150D02*
X47000Y-33950D01*
X66000Y-30200D02*
X65800Y-30200D01*
X63000Y-30200D02*
X63200Y-30200D01*
X63200Y-30200D02*
X63200Y-30600D01*
X63200Y-30600D02*
X65800Y-30600D01*
X65800Y-30600D02*
X65800Y-29800D01*
X65800Y-29800D02*
X63200Y-29800D01*
X63200Y-29800D02*
X63200Y-30200D01*
X65800Y-30400D02*
X65600Y-30600D01*
X60150Y-36400D02*
X59950Y-36400D01*
X57150Y-36400D02*
X57350Y-36400D01*
X57350Y-36400D02*
X57350Y-36800D01*
X57350Y-36800D02*
X59950Y-36800D01*
X59950Y-36800D02*
X59950Y-36000D01*
X59950Y-36000D02*
X57350Y-36000D01*
X57350Y-36000D02*
X57350Y-36400D01*
X59950Y-36600D02*
X59750Y-36800D01*
X60150Y-37350D02*
X59950Y-37350D01*
X57150Y-37350D02*
X57350Y-37350D01*
X57350Y-37350D02*
X57350Y-37750D01*
X57350Y-37750D02*
X59950Y-37750D01*
X59950Y-37750D02*
X59950Y-36950D01*
X59950Y-36950D02*
X57350Y-36950D01*
X57350Y-36950D02*
X57350Y-37350D01*
X59950Y-37550D02*
X59750Y-37750D01*
X71850Y-42450D02*
X71850Y-42650D01*
X71850Y-45450D02*
X71850Y-45250D01*
X71850Y-45250D02*
X72250Y-45250D01*
X72250Y-45250D02*
X72250Y-42650D01*
X72250Y-42650D02*
X71450Y-42650D01*
X71450Y-42650D02*
X71450Y-45250D01*
X71450Y-45250D02*
X71850Y-45250D01*
X72050Y-42650D02*
X72250Y-42850D01*
X49900Y-42450D02*
X49700Y-42450D01*
X46900Y-42450D02*
X47100Y-42450D01*
X47100Y-42450D02*
X47100Y-42850D01*
X47100Y-42850D02*
X49700Y-42850D01*
X49700Y-42850D02*
X49700Y-42050D01*
X49700Y-42050D02*
X47100Y-42050D01*
X47100Y-42050D02*
X47100Y-42450D01*
X49700Y-42650D02*
X49500Y-42850D01*
X46950Y-44000D02*
X47150Y-44000D01*
X49950Y-44000D02*
X49750Y-44000D01*
X49750Y-44000D02*
X49750Y-43600D01*
X49750Y-43600D02*
X47150Y-43600D01*
X47150Y-43600D02*
X47150Y-44400D01*
X47150Y-44400D02*
X49750Y-44400D01*
X49750Y-44400D02*
X49750Y-44000D01*
X47150Y-43800D02*
X47350Y-43600D01*
X46650Y-32100D02*
X46850Y-32100D01*
X49650Y-32100D02*
X49450Y-32100D01*
X49450Y-32100D02*
X49450Y-31700D01*
X49450Y-31700D02*
X46850Y-31700D01*
X46850Y-31700D02*
X46850Y-32500D01*
X46850Y-32500D02*
X49450Y-32500D01*
X49450Y-32500D02*
X49450Y-32100D01*
X46850Y-31900D02*
X47050Y-31700D01*
X61850Y-35850D02*
X62850Y-35850D01*
X62850Y-35850D02*
X62850Y-45850D01*
X62850Y-45850D02*
X61850Y-45850D01*
X61850Y-45850D02*
X61850Y-35850D01*
X61850Y-36850D02*
X62850Y-36850D01*
X73450Y-34450D02*
X72450Y-34450D01*
X72450Y-34450D02*
X72450Y-32450D01*
X72450Y-32450D02*
X73450Y-32450D01*
X73450Y-32450D02*
X73450Y-34450D01*
X73450Y-39700D02*
X72450Y-39700D01*
X72450Y-39700D02*
X72450Y-34700D01*
X72450Y-34700D02*
X73450Y-34700D01*
X73450Y-34700D02*
X73450Y-39700D01*
X73450Y-38700D02*
X72450Y-38700D01*
X73450Y-45950D02*
X72450Y-45950D01*
X72450Y-45950D02*
X72450Y-39950D01*
X72450Y-39950D02*
X73450Y-39950D01*
X73450Y-39950D02*
X73450Y-45950D01*
X73450Y-44950D02*
X72450Y-44950D01*
G54D12*
X59200Y-42650D02*
X60200Y-42650D01*
X60200Y-42650D02*
X60200Y-46650D01*
X60200Y-46650D02*
X59200Y-46650D01*
X59200Y-46650D02*
X59200Y-42650D01*
X61700Y-47150D02*
X57700Y-47150D01*
X57700Y-47150D02*
X57700Y-42150D01*
X57700Y-42150D02*
X61700Y-42150D01*
X61700Y-42150D02*
X61700Y-47150D01*
X73350Y-29400D02*
X73332Y-29574D01*
X73282Y-29742D01*
X73199Y-29898D01*
X73088Y-30034D01*
X72953Y-30146D01*
X72798Y-30229D01*
X72630Y-30281D01*
X72456Y-30299D01*
X72282Y-30284D01*
X72113Y-30234D01*
X71958Y-30153D01*
X71821Y-30043D01*
X71708Y-29908D01*
X71623Y-29754D01*
X71570Y-29587D01*
X71551Y-29412D01*
X71565Y-29238D01*
X71614Y-29069D01*
X71694Y-28913D01*
X71803Y-28775D01*
X71937Y-28661D01*
X72090Y-28576D01*
X72257Y-28521D01*
X72432Y-28501D01*
X72606Y-28514D01*
X72775Y-28561D01*
X72932Y-28641D01*
X73070Y-28749D01*
X73185Y-28882D01*
X73272Y-29034D01*
X73327Y-29201D01*
X73349Y-29375D01*
X73350Y-29400D01*
X73350Y-47550D02*
X73332Y-47724D01*
X73282Y-47892D01*
X73199Y-48048D01*
X73088Y-48184D01*
X72953Y-48296D01*
X72798Y-48379D01*
X72630Y-48431D01*
X72456Y-48449D01*
X72282Y-48434D01*
X72113Y-48384D01*
X71958Y-48303D01*
X71821Y-48193D01*
X71708Y-48058D01*
X71623Y-47904D01*
X71570Y-47737D01*
X71551Y-47562D01*
X71565Y-47388D01*
X71614Y-47219D01*
X71694Y-47063D01*
X71803Y-46925D01*
X71937Y-46811D01*
X72090Y-46726D01*
X72257Y-46671D01*
X72432Y-46651D01*
X72606Y-46664D01*
X72775Y-46711D01*
X72932Y-46791D01*
X73070Y-46899D01*
X73185Y-47032D01*
X73272Y-47184D01*
X73327Y-47351D01*
X73349Y-47525D01*
X73350Y-47550D01*
X42900Y-47550D02*
X42882Y-47724D01*
X42832Y-47892D01*
X42749Y-48048D01*
X42638Y-48184D01*
X42503Y-48296D01*
X42348Y-48379D01*
X42180Y-48431D01*
X42006Y-48449D01*
X41832Y-48434D01*
X41663Y-48384D01*
X41508Y-48303D01*
X41371Y-48193D01*
X41258Y-48058D01*
X41173Y-47904D01*
X41120Y-47737D01*
X41101Y-47562D01*
X41115Y-47388D01*
X41164Y-47219D01*
X41244Y-47063D01*
X41353Y-46925D01*
X41487Y-46811D01*
X41640Y-46726D01*
X41807Y-46671D01*
X41982Y-46651D01*
X42156Y-46664D01*
X42325Y-46711D01*
X42482Y-46791D01*
X42620Y-46899D01*
X42735Y-47032D01*
X42822Y-47184D01*
X42877Y-47351D01*
X42899Y-47525D01*
X42900Y-47550D01*
X42900Y-29400D02*
X42882Y-29574D01*
X42832Y-29742D01*
X42749Y-29898D01*
X42638Y-30034D01*
X42503Y-30146D01*
X42348Y-30229D01*
X42180Y-30281D01*
X42006Y-30299D01*
X41832Y-30284D01*
X41663Y-30234D01*
X41508Y-30153D01*
X41371Y-30043D01*
X41258Y-29908D01*
X41173Y-29754D01*
X41120Y-29587D01*
X41101Y-29412D01*
X41115Y-29238D01*
X41164Y-29069D01*
X41244Y-28913D01*
X41353Y-28775D01*
X41487Y-28661D01*
X41640Y-28576D01*
X41807Y-28521D01*
X41982Y-28501D01*
X42156Y-28514D01*
X42325Y-28561D01*
X42482Y-28641D01*
X42620Y-28749D01*
X42735Y-28882D01*
X42822Y-29034D01*
X42877Y-29201D01*
X42899Y-29375D01*
X42900Y-29400D01*
G54D16*
X66100Y-47350D02*
X66080Y-47544D01*
X66024Y-47731D01*
X65932Y-47903D01*
X65809Y-48054D01*
X65659Y-48179D01*
X65487Y-48271D01*
X65301Y-48329D01*
X65106Y-48349D01*
X64913Y-48332D01*
X64726Y-48277D01*
X64553Y-48186D01*
X64401Y-48064D01*
X64275Y-47914D01*
X64181Y-47743D01*
X64122Y-47557D01*
X64101Y-47363D01*
X64117Y-47170D01*
X64171Y-46982D01*
X64260Y-46809D01*
X64381Y-46656D01*
X64530Y-46529D01*
X64700Y-46434D01*
X64886Y-46374D01*
X65080Y-46351D01*
X65273Y-46366D01*
X65461Y-46418D01*
X65635Y-46506D01*
X65789Y-46626D01*
X65917Y-46774D01*
X66013Y-46944D01*
X66075Y-47129D01*
X66099Y-47323D01*
X66100Y-47350D01*
X66600Y-48850D02*
X63600Y-48850D01*
X63600Y-48850D02*
X63600Y-45850D01*
X63600Y-45850D02*
X66600Y-45850D01*
X66600Y-48850D02*
X66600Y-45850D01*
X41750Y-35300D02*
X41750Y-41300D01*
X41750Y-41300D02*
X48850Y-41300D01*
X48850Y-41300D02*
X48850Y-35300D01*
X48850Y-35300D02*
X41750Y-35300D01*
G54D14*
X71205Y-32062D02*
X71205Y-31662D01*
X71300Y-31662D01*
X71358Y-31681D01*
X71396Y-31719D01*
X71415Y-31757D01*
X71434Y-31833D01*
X71434Y-31890D01*
X71415Y-31967D01*
X71396Y-32005D01*
X71358Y-32043D01*
X71300Y-32062D01*
X71205Y-32062D01*
X71815Y-32062D02*
X71586Y-32062D01*
X71700Y-32062D02*
X71700Y-31662D01*
X71662Y-31719D01*
X71624Y-31757D01*
X71586Y-31776D01*
G54D17*
X65243Y-43139D02*
X64643Y-43139D01*
X65186Y-42668D02*
X65214Y-42689D01*
X65243Y-42753D01*
X65243Y-42796D01*
X65214Y-42861D01*
X65157Y-42903D01*
X65100Y-42925D01*
X64986Y-42946D01*
X64900Y-42946D01*
X64786Y-42925D01*
X64729Y-42903D01*
X64671Y-42861D01*
X64643Y-42796D01*
X64643Y-42753D01*
X64671Y-42689D01*
X64700Y-42668D01*
X65243Y-42239D02*
X65243Y-42496D01*
X65243Y-42368D02*
X64643Y-42368D01*
X64729Y-42411D01*
X64786Y-42453D01*
X64814Y-42496D01*
X65071Y-37754D02*
X65071Y-37540D01*
X65243Y-37797D02*
X64643Y-37647D01*
X65243Y-37497D01*
X64643Y-37411D02*
X64643Y-37154D01*
X65243Y-37283D02*
X64643Y-37283D01*
X65243Y-37004D02*
X64643Y-37004D01*
X65071Y-36854D01*
X64643Y-36704D01*
X65243Y-36704D01*
X64929Y-36490D02*
X64929Y-36340D01*
X65243Y-36276D02*
X65243Y-36490D01*
X64643Y-36490D01*
X64643Y-36276D01*
X64671Y-35847D02*
X64643Y-35890D01*
X64643Y-35954D01*
X64671Y-36019D01*
X64729Y-36061D01*
X64786Y-36083D01*
X64900Y-36104D01*
X64986Y-36104D01*
X65100Y-36083D01*
X65157Y-36061D01*
X65214Y-36019D01*
X65243Y-35954D01*
X65243Y-35911D01*
X65214Y-35847D01*
X65186Y-35826D01*
X64986Y-35826D01*
X64986Y-35911D01*
X65071Y-35654D02*
X65071Y-35440D01*
X65243Y-35697D02*
X64643Y-35547D01*
X65243Y-35397D01*
X65243Y-35011D02*
X65243Y-35268D01*
X65243Y-35140D02*
X64643Y-35140D01*
X64729Y-35183D01*
X64786Y-35225D01*
X64814Y-35268D01*
X64643Y-34625D02*
X64643Y-34711D01*
X64671Y-34754D01*
X64700Y-34775D01*
X64786Y-34818D01*
X64900Y-34839D01*
X65129Y-34839D01*
X65186Y-34818D01*
X65214Y-34796D01*
X65243Y-34754D01*
X65243Y-34668D01*
X65214Y-34625D01*
X65186Y-34604D01*
X65129Y-34582D01*
X64986Y-34582D01*
X64929Y-34604D01*
X64900Y-34625D01*
X64871Y-34668D01*
X64871Y-34754D01*
X64900Y-34796D01*
X64929Y-34818D01*
X64986Y-34839D01*
X64900Y-34325D02*
X64871Y-34367D01*
X64843Y-34389D01*
X64786Y-34410D01*
X64757Y-34410D01*
X64700Y-34389D01*
X64671Y-34367D01*
X64643Y-34325D01*
X64643Y-34239D01*
X64671Y-34196D01*
X64700Y-34175D01*
X64757Y-34153D01*
X64786Y-34153D01*
X64843Y-34175D01*
X64871Y-34196D01*
X64900Y-34239D01*
X64900Y-34325D01*
X64929Y-34367D01*
X64957Y-34389D01*
X65014Y-34410D01*
X65129Y-34410D01*
X65186Y-34389D01*
X65214Y-34367D01*
X65243Y-34325D01*
X65243Y-34239D01*
X65214Y-34196D01*
X65186Y-34175D01*
X65129Y-34153D01*
X65014Y-34153D01*
X64957Y-34175D01*
X64929Y-34196D01*
X64900Y-34239D01*
X65014Y-33960D02*
X65014Y-33617D01*
X65243Y-33403D02*
X64643Y-33403D01*
X64643Y-33231D01*
X64671Y-33189D01*
X64700Y-33167D01*
X64757Y-33146D01*
X64843Y-33146D01*
X64900Y-33167D01*
X64929Y-33189D01*
X64957Y-33231D01*
X64957Y-33403D01*
X54193Y-43693D02*
X54679Y-43693D01*
X54736Y-43671D01*
X54764Y-43650D01*
X54793Y-43607D01*
X54793Y-43521D01*
X54764Y-43479D01*
X54736Y-43457D01*
X54679Y-43436D01*
X54193Y-43436D01*
X54193Y-43265D02*
X54193Y-42986D01*
X54421Y-43136D01*
X54421Y-43072D01*
X54450Y-43029D01*
X54479Y-43008D01*
X54536Y-42986D01*
X54679Y-42986D01*
X54736Y-43008D01*
X54764Y-43029D01*
X54793Y-43072D01*
X54793Y-43200D01*
X54764Y-43243D01*
X54736Y-43265D01*
X54479Y-38479D02*
X54479Y-38329D01*
X54793Y-38265D02*
X54793Y-38479D01*
X54193Y-38479D01*
X54193Y-38265D01*
X54793Y-38072D02*
X54193Y-38072D01*
X54793Y-37815D01*
X54193Y-37815D01*
X54736Y-37344D02*
X54764Y-37365D01*
X54793Y-37429D01*
X54793Y-37472D01*
X54764Y-37537D01*
X54707Y-37579D01*
X54650Y-37601D01*
X54536Y-37622D01*
X54450Y-37622D01*
X54336Y-37601D01*
X54279Y-37579D01*
X54221Y-37537D01*
X54193Y-37472D01*
X54193Y-37429D01*
X54221Y-37365D01*
X54250Y-37344D01*
X54250Y-37172D02*
X54221Y-37151D01*
X54193Y-37108D01*
X54193Y-37001D01*
X54221Y-36958D01*
X54250Y-36937D01*
X54307Y-36915D01*
X54364Y-36915D01*
X54450Y-36937D01*
X54793Y-37194D01*
X54793Y-36915D01*
X54450Y-36658D02*
X54421Y-36700D01*
X54393Y-36722D01*
X54336Y-36743D01*
X54307Y-36743D01*
X54250Y-36722D01*
X54221Y-36700D01*
X54193Y-36658D01*
X54193Y-36572D01*
X54221Y-36529D01*
X54250Y-36508D01*
X54307Y-36486D01*
X54336Y-36486D01*
X54393Y-36508D01*
X54421Y-36529D01*
X54450Y-36572D01*
X54450Y-36658D01*
X54479Y-36700D01*
X54507Y-36722D01*
X54564Y-36743D01*
X54679Y-36743D01*
X54736Y-36722D01*
X54764Y-36700D01*
X54793Y-36658D01*
X54793Y-36572D01*
X54764Y-36529D01*
X54736Y-36508D01*
X54679Y-36486D01*
X54564Y-36486D01*
X54507Y-36508D01*
X54479Y-36529D01*
X54450Y-36572D01*
X54193Y-36164D02*
X54621Y-36164D01*
X54707Y-36186D01*
X54764Y-36229D01*
X54793Y-36293D01*
X54793Y-36336D01*
X54193Y-35757D02*
X54193Y-35843D01*
X54221Y-35886D01*
X54250Y-35907D01*
X54336Y-35950D01*
X54450Y-35971D01*
X54679Y-35971D01*
X54736Y-35950D01*
X54764Y-35928D01*
X54793Y-35886D01*
X54793Y-35800D01*
X54764Y-35757D01*
X54736Y-35736D01*
X54679Y-35714D01*
X54536Y-35714D01*
X54479Y-35736D01*
X54450Y-35757D01*
X54421Y-35800D01*
X54421Y-35886D01*
X54450Y-35928D01*
X54479Y-35950D01*
X54536Y-35971D01*
X54193Y-35435D02*
X54193Y-35392D01*
X54221Y-35349D01*
X54250Y-35328D01*
X54307Y-35307D01*
X54421Y-35285D01*
X54564Y-35285D01*
X54679Y-35307D01*
X54736Y-35328D01*
X54764Y-35349D01*
X54793Y-35392D01*
X54793Y-35435D01*
X54764Y-35478D01*
X54736Y-35499D01*
X54679Y-35521D01*
X54564Y-35542D01*
X54421Y-35542D01*
X54307Y-35521D01*
X54250Y-35499D01*
X54221Y-35478D01*
X54193Y-35435D01*
X54564Y-35092D02*
X54564Y-34749D01*
X54793Y-34535D02*
X54193Y-34535D01*
X54193Y-34428D01*
X54221Y-34363D01*
X54279Y-34321D01*
X54336Y-34299D01*
X54450Y-34278D01*
X54536Y-34278D01*
X54650Y-34299D01*
X54707Y-34321D01*
X54764Y-34363D01*
X54793Y-34428D01*
X54793Y-34535D01*
X54793Y-34085D02*
X54193Y-34085D01*
X54793Y-33657D02*
X54793Y-33871D01*
X54193Y-33871D01*
G54D10*
X67332Y-37255D02*
X67782Y-36921D01*
X67332Y-36921D02*
X67782Y-37255D01*
X67782Y-36469D02*
X67782Y-36755D01*
X67782Y-36612D02*
X67332Y-36612D01*
X67396Y-36660D01*
X67439Y-36707D01*
X67461Y-36755D01*
X69132Y-37609D02*
X69132Y-37895D01*
X69132Y-37752D02*
X68682Y-37752D01*
X68746Y-37800D01*
X68789Y-37847D01*
X68811Y-37895D01*
X68682Y-37181D02*
X68682Y-37276D01*
X68704Y-37324D01*
X68725Y-37347D01*
X68789Y-37395D01*
X68875Y-37419D01*
X69046Y-37419D01*
X69089Y-37395D01*
X69111Y-37371D01*
X69132Y-37324D01*
X69132Y-37228D01*
X69111Y-37181D01*
X69089Y-37157D01*
X69046Y-37133D01*
X68939Y-37133D01*
X68896Y-37157D01*
X68875Y-37181D01*
X68854Y-37228D01*
X68854Y-37324D01*
X68875Y-37371D01*
X68896Y-37395D01*
X68939Y-37419D01*
X69132Y-36919D02*
X68682Y-36919D01*
X69004Y-36752D01*
X68682Y-36586D01*
X69132Y-36586D01*
X69132Y-36348D02*
X68682Y-36348D01*
X69132Y-36134D02*
X68896Y-36134D01*
X68854Y-36157D01*
X68832Y-36205D01*
X68832Y-36277D01*
X68854Y-36324D01*
X68875Y-36348D01*
X68832Y-35944D02*
X68832Y-35682D01*
X69132Y-35944D01*
X69132Y-35682D01*
X50382Y-41455D02*
X50832Y-41121D01*
X50382Y-41121D02*
X50832Y-41455D01*
X50425Y-40955D02*
X50404Y-40931D01*
X50382Y-40883D01*
X50382Y-40764D01*
X50404Y-40717D01*
X50425Y-40693D01*
X50468Y-40669D01*
X50511Y-40669D01*
X50575Y-40693D01*
X50832Y-40979D01*
X50832Y-40669D01*
X51775Y-42095D02*
X51754Y-42071D01*
X51732Y-42023D01*
X51732Y-41904D01*
X51754Y-41857D01*
X51775Y-41833D01*
X51818Y-41809D01*
X51861Y-41809D01*
X51925Y-41833D01*
X52182Y-42119D01*
X52182Y-41809D01*
X51732Y-41357D02*
X51732Y-41595D01*
X51946Y-41619D01*
X51925Y-41595D01*
X51904Y-41547D01*
X51904Y-41428D01*
X51925Y-41381D01*
X51946Y-41357D01*
X51989Y-41333D01*
X52096Y-41333D01*
X52139Y-41357D01*
X52161Y-41381D01*
X52182Y-41428D01*
X52182Y-41547D01*
X52161Y-41595D01*
X52139Y-41619D01*
X52182Y-41119D02*
X51732Y-41119D01*
X52054Y-40952D01*
X51732Y-40786D01*
X52182Y-40786D01*
X52182Y-40548D02*
X51732Y-40548D01*
X52182Y-40334D02*
X51946Y-40334D01*
X51904Y-40357D01*
X51882Y-40405D01*
X51882Y-40477D01*
X51904Y-40524D01*
X51925Y-40548D01*
X51882Y-40144D02*
X51882Y-39882D01*
X52182Y-40144D01*
X52182Y-39882D01*
G54D18*
X71171Y-43572D02*
X70871Y-43572D01*
X70871Y-43500D01*
X70886Y-43457D01*
X70914Y-43429D01*
X70943Y-43414D01*
X71000Y-43400D01*
X71043Y-43400D01*
X71100Y-43414D01*
X71129Y-43429D01*
X71157Y-43457D01*
X71171Y-43500D01*
X71171Y-43572D01*
X70971Y-43143D02*
X71171Y-43143D01*
X70857Y-43214D02*
X71071Y-43286D01*
X71071Y-43100D01*
X69071Y-42843D02*
X69071Y-42986D01*
X68771Y-42986D01*
X68914Y-42743D02*
X68914Y-42643D01*
X69071Y-42600D02*
X69071Y-42743D01*
X68771Y-42743D01*
X68771Y-42600D01*
X69071Y-42472D02*
X68771Y-42472D01*
X68771Y-42400D01*
X68786Y-42357D01*
X68814Y-42329D01*
X68843Y-42314D01*
X68900Y-42300D01*
X68943Y-42300D01*
X69000Y-42314D01*
X69029Y-42329D01*
X69057Y-42357D01*
X69071Y-42400D01*
X69071Y-42472D01*
X69221Y-43572D02*
X68921Y-43572D01*
X68921Y-43500D01*
X68936Y-43457D01*
X68964Y-43429D01*
X68993Y-43414D01*
X69050Y-43400D01*
X69093Y-43400D01*
X69150Y-43414D01*
X69179Y-43429D01*
X69207Y-43457D01*
X69221Y-43500D01*
X69221Y-43572D01*
X68921Y-43300D02*
X68921Y-43114D01*
X69036Y-43214D01*
X69036Y-43172D01*
X69050Y-43143D01*
X69064Y-43129D01*
X69093Y-43114D01*
X69164Y-43114D01*
X69193Y-43129D01*
X69207Y-43143D01*
X69221Y-43172D01*
X69221Y-43257D01*
X69207Y-43286D01*
X69193Y-43300D01*
X67121Y-42843D02*
X67121Y-42986D01*
X66821Y-42986D01*
X66964Y-42743D02*
X66964Y-42643D01*
X67121Y-42600D02*
X67121Y-42743D01*
X66821Y-42743D01*
X66821Y-42600D01*
X67121Y-42472D02*
X66821Y-42472D01*
X66821Y-42400D01*
X66836Y-42357D01*
X66864Y-42329D01*
X66893Y-42314D01*
X66950Y-42300D01*
X66993Y-42300D01*
X67050Y-42314D01*
X67079Y-42329D01*
X67107Y-42357D01*
X67121Y-42400D01*
X67121Y-42472D01*
X61178Y-31521D02*
X61178Y-31221D01*
X61250Y-31221D01*
X61293Y-31236D01*
X61321Y-31264D01*
X61336Y-31293D01*
X61350Y-31350D01*
X61350Y-31393D01*
X61336Y-31450D01*
X61321Y-31479D01*
X61293Y-31507D01*
X61250Y-31521D01*
X61178Y-31521D01*
X61464Y-31250D02*
X61478Y-31236D01*
X61507Y-31221D01*
X61578Y-31221D01*
X61607Y-31236D01*
X61621Y-31250D01*
X61636Y-31279D01*
X61636Y-31307D01*
X61621Y-31350D01*
X61450Y-31521D01*
X61636Y-31521D01*
X61207Y-28521D02*
X61064Y-28521D01*
X61064Y-28221D01*
X61307Y-28364D02*
X61407Y-28364D01*
X61450Y-28521D02*
X61307Y-28521D01*
X61307Y-28221D01*
X61450Y-28221D01*
X61578Y-28521D02*
X61578Y-28221D01*
X61650Y-28221D01*
X61693Y-28236D01*
X61721Y-28264D01*
X61736Y-28293D01*
X61750Y-28350D01*
X61750Y-28393D01*
X61736Y-28450D01*
X61721Y-28479D01*
X61693Y-28507D01*
X61650Y-28521D01*
X61578Y-28521D01*
G54D14*
X56662Y-30205D02*
X56986Y-30205D01*
X57024Y-30186D01*
X57043Y-30167D01*
X57062Y-30129D01*
X57062Y-30052D01*
X57043Y-30014D01*
X57024Y-29995D01*
X56986Y-29976D01*
X56662Y-29976D01*
X56795Y-29614D02*
X57062Y-29614D01*
X56643Y-29710D02*
X56929Y-29805D01*
X56929Y-29557D01*
X60162Y-31017D02*
X60162Y-30750D01*
X60562Y-30922D01*
X60333Y-30541D02*
X60314Y-30579D01*
X60295Y-30598D01*
X60257Y-30617D01*
X60238Y-30617D01*
X60200Y-30598D01*
X60181Y-30579D01*
X60162Y-30541D01*
X60162Y-30464D01*
X60181Y-30426D01*
X60200Y-30407D01*
X60238Y-30388D01*
X60257Y-30388D01*
X60295Y-30407D01*
X60314Y-30426D01*
X60333Y-30464D01*
X60333Y-30541D01*
X60352Y-30579D01*
X60371Y-30598D01*
X60410Y-30617D01*
X60486Y-30617D01*
X60524Y-30598D01*
X60543Y-30579D01*
X60562Y-30541D01*
X60562Y-30464D01*
X60543Y-30426D01*
X60524Y-30407D01*
X60486Y-30388D01*
X60410Y-30388D01*
X60371Y-30407D01*
X60352Y-30426D01*
X60333Y-30464D01*
X60562Y-30026D02*
X60562Y-30217D01*
X60162Y-30217D01*
X60162Y-29931D02*
X60162Y-29683D01*
X60314Y-29817D01*
X60314Y-29759D01*
X60333Y-29721D01*
X60352Y-29702D01*
X60390Y-29683D01*
X60486Y-29683D01*
X60524Y-29702D01*
X60543Y-29721D01*
X60562Y-29759D01*
X60562Y-29874D01*
X60543Y-29912D01*
X60524Y-29931D01*
X60162Y-29550D02*
X60162Y-29302D01*
X60314Y-29436D01*
X60314Y-29378D01*
X60333Y-29340D01*
X60352Y-29321D01*
X60390Y-29302D01*
X60486Y-29302D01*
X60524Y-29321D01*
X60543Y-29340D01*
X60562Y-29378D01*
X60562Y-29493D01*
X60543Y-29531D01*
X60524Y-29550D01*
X67312Y-29955D02*
X67636Y-29955D01*
X67674Y-29936D01*
X67693Y-29917D01*
X67712Y-29879D01*
X67712Y-29802D01*
X67693Y-29764D01*
X67674Y-29745D01*
X67636Y-29726D01*
X67312Y-29726D01*
X67350Y-29555D02*
X67331Y-29536D01*
X67312Y-29498D01*
X67312Y-29402D01*
X67331Y-29364D01*
X67350Y-29345D01*
X67388Y-29326D01*
X67426Y-29326D01*
X67483Y-29345D01*
X67712Y-29574D01*
X67712Y-29326D01*
X70812Y-30767D02*
X70812Y-30500D01*
X71212Y-30672D01*
X70983Y-30291D02*
X70964Y-30329D01*
X70945Y-30348D01*
X70907Y-30367D01*
X70888Y-30367D01*
X70850Y-30348D01*
X70831Y-30329D01*
X70812Y-30291D01*
X70812Y-30214D01*
X70831Y-30176D01*
X70850Y-30157D01*
X70888Y-30138D01*
X70907Y-30138D01*
X70945Y-30157D01*
X70964Y-30176D01*
X70983Y-30214D01*
X70983Y-30291D01*
X71002Y-30329D01*
X71021Y-30348D01*
X71060Y-30367D01*
X71136Y-30367D01*
X71174Y-30348D01*
X71193Y-30329D01*
X71212Y-30291D01*
X71212Y-30214D01*
X71193Y-30176D01*
X71174Y-30157D01*
X71136Y-30138D01*
X71060Y-30138D01*
X71021Y-30157D01*
X71002Y-30176D01*
X70983Y-30214D01*
X71212Y-29776D02*
X71212Y-29967D01*
X70812Y-29967D01*
X70812Y-29567D02*
X70812Y-29528D01*
X70831Y-29490D01*
X70850Y-29471D01*
X70888Y-29452D01*
X70964Y-29433D01*
X71060Y-29433D01*
X71136Y-29452D01*
X71174Y-29471D01*
X71193Y-29490D01*
X71212Y-29528D01*
X71212Y-29567D01*
X71193Y-29605D01*
X71174Y-29624D01*
X71136Y-29643D01*
X71060Y-29662D01*
X70964Y-29662D01*
X70888Y-29643D01*
X70850Y-29624D01*
X70831Y-29605D01*
X70812Y-29567D01*
X70812Y-29071D02*
X70812Y-29262D01*
X71002Y-29281D01*
X70983Y-29262D01*
X70964Y-29224D01*
X70964Y-29128D01*
X70983Y-29090D01*
X71002Y-29071D01*
X71040Y-29052D01*
X71136Y-29052D01*
X71174Y-29071D01*
X71193Y-29090D01*
X71212Y-29128D01*
X71212Y-29224D01*
X71193Y-29262D01*
X71174Y-29281D01*
X72073Y-40021D02*
X71811Y-40188D01*
X72073Y-40307D02*
X71523Y-40307D01*
X71523Y-40116D01*
X71549Y-40069D01*
X71575Y-40045D01*
X71627Y-40021D01*
X71706Y-40021D01*
X71758Y-40045D01*
X71785Y-40069D01*
X71811Y-40116D01*
X71811Y-40307D01*
X72073Y-39545D02*
X72073Y-39831D01*
X72073Y-39688D02*
X71523Y-39688D01*
X71601Y-39736D01*
X71654Y-39783D01*
X71680Y-39831D01*
X71575Y-39355D02*
X71549Y-39331D01*
X71523Y-39283D01*
X71523Y-39164D01*
X71549Y-39117D01*
X71575Y-39093D01*
X71627Y-39069D01*
X71680Y-39069D01*
X71758Y-39093D01*
X72073Y-39379D01*
X72073Y-39069D01*
X57473Y-32971D02*
X57211Y-33138D01*
X57473Y-33257D02*
X56923Y-33257D01*
X56923Y-33066D01*
X56949Y-33019D01*
X56975Y-32995D01*
X57027Y-32971D01*
X57106Y-32971D01*
X57158Y-32995D01*
X57185Y-33019D01*
X57211Y-33066D01*
X57211Y-33257D01*
X57473Y-32495D02*
X57473Y-32781D01*
X57473Y-32638D02*
X56923Y-32638D01*
X57001Y-32686D01*
X57054Y-32733D01*
X57080Y-32781D01*
X57473Y-32019D02*
X57473Y-32305D01*
X57473Y-32162D02*
X56923Y-32162D01*
X57001Y-32210D01*
X57054Y-32257D01*
X57080Y-32305D01*
X69123Y-45671D02*
X68861Y-45838D01*
X69123Y-45957D02*
X68573Y-45957D01*
X68573Y-45766D01*
X68599Y-45719D01*
X68625Y-45695D01*
X68677Y-45671D01*
X68756Y-45671D01*
X68808Y-45695D01*
X68835Y-45719D01*
X68861Y-45766D01*
X68861Y-45957D01*
X69123Y-45195D02*
X69123Y-45481D01*
X69123Y-45338D02*
X68573Y-45338D01*
X68651Y-45386D01*
X68704Y-45433D01*
X68730Y-45481D01*
X68573Y-45029D02*
X68573Y-44719D01*
X68782Y-44886D01*
X68782Y-44814D01*
X68808Y-44767D01*
X68835Y-44743D01*
X68887Y-44719D01*
X69018Y-44719D01*
X69070Y-44743D01*
X69096Y-44767D01*
X69123Y-44814D01*
X69123Y-44957D01*
X69096Y-45005D01*
X69070Y-45029D01*
X48342Y-45498D02*
X48175Y-45236D01*
X48056Y-45498D02*
X48056Y-44948D01*
X48247Y-44948D01*
X48294Y-44974D01*
X48318Y-45000D01*
X48342Y-45052D01*
X48342Y-45131D01*
X48318Y-45183D01*
X48294Y-45210D01*
X48247Y-45236D01*
X48056Y-45236D01*
X48580Y-45498D02*
X48675Y-45498D01*
X48723Y-45471D01*
X48747Y-45445D01*
X48794Y-45367D01*
X48818Y-45262D01*
X48818Y-45052D01*
X48794Y-45000D01*
X48770Y-44974D01*
X48723Y-44948D01*
X48627Y-44948D01*
X48580Y-44974D01*
X48556Y-45000D01*
X48532Y-45052D01*
X48532Y-45183D01*
X48556Y-45236D01*
X48580Y-45262D01*
X48627Y-45288D01*
X48723Y-45288D01*
X48770Y-45262D01*
X48794Y-45236D01*
X48818Y-45183D01*
X50673Y-36733D02*
X50411Y-36900D01*
X50673Y-37019D02*
X50123Y-37019D01*
X50123Y-36828D01*
X50149Y-36781D01*
X50175Y-36757D01*
X50227Y-36733D01*
X50306Y-36733D01*
X50358Y-36757D01*
X50385Y-36781D01*
X50411Y-36828D01*
X50411Y-37019D01*
X50358Y-36448D02*
X50332Y-36495D01*
X50306Y-36519D01*
X50254Y-36543D01*
X50227Y-36543D01*
X50175Y-36519D01*
X50149Y-36495D01*
X50123Y-36448D01*
X50123Y-36352D01*
X50149Y-36305D01*
X50175Y-36281D01*
X50227Y-36257D01*
X50254Y-36257D01*
X50306Y-36281D01*
X50332Y-36305D01*
X50358Y-36352D01*
X50358Y-36448D01*
X50385Y-36495D01*
X50411Y-36519D01*
X50463Y-36543D01*
X50568Y-36543D01*
X50620Y-36519D01*
X50646Y-36495D01*
X50673Y-36448D01*
X50673Y-36352D01*
X50646Y-36305D01*
X50620Y-36281D01*
X50568Y-36257D01*
X50463Y-36257D01*
X50411Y-36281D01*
X50385Y-36305D01*
X50358Y-36352D01*
X70973Y-45671D02*
X70711Y-45838D01*
X70973Y-45957D02*
X70423Y-45957D01*
X70423Y-45766D01*
X70449Y-45719D01*
X70475Y-45695D01*
X70527Y-45671D01*
X70606Y-45671D01*
X70658Y-45695D01*
X70685Y-45719D01*
X70711Y-45766D01*
X70711Y-45957D01*
X70973Y-45195D02*
X70973Y-45481D01*
X70973Y-45338D02*
X70423Y-45338D01*
X70501Y-45386D01*
X70554Y-45433D01*
X70580Y-45481D01*
X70606Y-44767D02*
X70973Y-44767D01*
X70396Y-44886D02*
X70789Y-45005D01*
X70789Y-44695D01*
X48017Y-33423D02*
X47850Y-33161D01*
X47731Y-33423D02*
X47731Y-32873D01*
X47922Y-32873D01*
X47969Y-32899D01*
X47993Y-32925D01*
X48017Y-32977D01*
X48017Y-33056D01*
X47993Y-33108D01*
X47969Y-33135D01*
X47922Y-33161D01*
X47731Y-33161D01*
X48445Y-32873D02*
X48350Y-32873D01*
X48302Y-32899D01*
X48279Y-32925D01*
X48231Y-33004D01*
X48207Y-33108D01*
X48207Y-33318D01*
X48231Y-33370D01*
X48255Y-33396D01*
X48302Y-33423D01*
X48398Y-33423D01*
X48445Y-33396D01*
X48469Y-33370D01*
X48493Y-33318D01*
X48493Y-33187D01*
X48469Y-33135D01*
X48445Y-33108D01*
X48398Y-33082D01*
X48302Y-33082D01*
X48255Y-33108D01*
X48231Y-33135D01*
X48207Y-33187D01*
X48017Y-34573D02*
X47850Y-34311D01*
X47731Y-34573D02*
X47731Y-34023D01*
X47922Y-34023D01*
X47969Y-34049D01*
X47993Y-34075D01*
X48017Y-34127D01*
X48017Y-34206D01*
X47993Y-34258D01*
X47969Y-34285D01*
X47922Y-34311D01*
X47731Y-34311D01*
X48469Y-34023D02*
X48231Y-34023D01*
X48207Y-34285D01*
X48231Y-34258D01*
X48279Y-34232D01*
X48398Y-34232D01*
X48445Y-34258D01*
X48469Y-34285D01*
X48493Y-34337D01*
X48493Y-34468D01*
X48469Y-34520D01*
X48445Y-34546D01*
X48398Y-34573D01*
X48279Y-34573D01*
X48231Y-34546D01*
X48207Y-34520D01*
X64417Y-30423D02*
X64250Y-30161D01*
X64131Y-30423D02*
X64131Y-29873D01*
X64322Y-29873D01*
X64369Y-29899D01*
X64393Y-29925D01*
X64417Y-29977D01*
X64417Y-30056D01*
X64393Y-30108D01*
X64369Y-30135D01*
X64322Y-30161D01*
X64131Y-30161D01*
X64845Y-30056D02*
X64845Y-30423D01*
X64726Y-29846D02*
X64607Y-30239D01*
X64917Y-30239D01*
X58567Y-36623D02*
X58400Y-36361D01*
X58281Y-36623D02*
X58281Y-36073D01*
X58472Y-36073D01*
X58519Y-36099D01*
X58543Y-36125D01*
X58567Y-36177D01*
X58567Y-36256D01*
X58543Y-36308D01*
X58519Y-36335D01*
X58472Y-36361D01*
X58281Y-36361D01*
X58733Y-36073D02*
X59043Y-36073D01*
X58876Y-36282D01*
X58948Y-36282D01*
X58995Y-36308D01*
X59019Y-36335D01*
X59043Y-36387D01*
X59043Y-36518D01*
X59019Y-36570D01*
X58995Y-36596D01*
X58948Y-36623D01*
X58805Y-36623D01*
X58757Y-36596D01*
X58733Y-36570D01*
X58567Y-37573D02*
X58400Y-37311D01*
X58281Y-37573D02*
X58281Y-37023D01*
X58472Y-37023D01*
X58519Y-37049D01*
X58543Y-37075D01*
X58567Y-37127D01*
X58567Y-37206D01*
X58543Y-37258D01*
X58519Y-37285D01*
X58472Y-37311D01*
X58281Y-37311D01*
X58757Y-37075D02*
X58781Y-37049D01*
X58829Y-37023D01*
X58948Y-37023D01*
X58995Y-37049D01*
X59019Y-37075D01*
X59043Y-37127D01*
X59043Y-37180D01*
X59019Y-37258D01*
X58733Y-37573D01*
X59043Y-37573D01*
X72073Y-44033D02*
X71811Y-44200D01*
X72073Y-44319D02*
X71523Y-44319D01*
X71523Y-44128D01*
X71549Y-44081D01*
X71575Y-44057D01*
X71627Y-44033D01*
X71706Y-44033D01*
X71758Y-44057D01*
X71785Y-44081D01*
X71811Y-44128D01*
X71811Y-44319D01*
X72073Y-43557D02*
X72073Y-43843D01*
X72073Y-43700D02*
X71523Y-43700D01*
X71601Y-43748D01*
X71654Y-43795D01*
X71680Y-43843D01*
X48317Y-42673D02*
X48150Y-42411D01*
X48031Y-42673D02*
X48031Y-42123D01*
X48222Y-42123D01*
X48269Y-42149D01*
X48293Y-42175D01*
X48317Y-42227D01*
X48317Y-42306D01*
X48293Y-42358D01*
X48269Y-42385D01*
X48222Y-42411D01*
X48031Y-42411D01*
X48483Y-42123D02*
X48817Y-42123D01*
X48602Y-42673D01*
X48129Y-44223D02*
X47962Y-43961D01*
X47843Y-44223D02*
X47843Y-43673D01*
X48034Y-43673D01*
X48081Y-43699D01*
X48105Y-43725D01*
X48129Y-43777D01*
X48129Y-43856D01*
X48105Y-43908D01*
X48081Y-43935D01*
X48034Y-43961D01*
X47843Y-43961D01*
X48605Y-44223D02*
X48319Y-44223D01*
X48462Y-44223D02*
X48462Y-43673D01*
X48414Y-43751D01*
X48367Y-43804D01*
X48319Y-43830D01*
X48914Y-43673D02*
X48962Y-43673D01*
X49010Y-43699D01*
X49033Y-43725D01*
X49057Y-43777D01*
X49081Y-43882D01*
X49081Y-44013D01*
X49057Y-44118D01*
X49033Y-44170D01*
X49010Y-44196D01*
X48962Y-44223D01*
X48914Y-44223D01*
X48867Y-44196D01*
X48843Y-44170D01*
X48819Y-44118D01*
X48795Y-44013D01*
X48795Y-43882D01*
X48819Y-43777D01*
X48843Y-43725D01*
X48867Y-43699D01*
X48914Y-43673D01*
X48067Y-32323D02*
X47829Y-32323D01*
X47829Y-31773D01*
X48496Y-32323D02*
X48210Y-32323D01*
X48353Y-32323D02*
X48353Y-31773D01*
X48305Y-31851D01*
X48258Y-31904D01*
X48210Y-31930D01*
G54D19*
X63625Y-38666D02*
X62944Y-38666D01*
X62944Y-38503D01*
X62977Y-38462D01*
X63009Y-38442D01*
X63074Y-38422D01*
X63171Y-38422D01*
X63236Y-38442D01*
X63268Y-38462D01*
X63301Y-38503D01*
X63301Y-38666D01*
X63171Y-38055D02*
X63625Y-38055D01*
X62912Y-38157D02*
X63398Y-38258D01*
X63398Y-37994D01*
G54D13*
X63536Y-44388D02*
X63564Y-44407D01*
X63593Y-44464D01*
X63593Y-44502D01*
X63564Y-44560D01*
X63507Y-44598D01*
X63450Y-44617D01*
X63336Y-44636D01*
X63250Y-44636D01*
X63136Y-44617D01*
X63079Y-44598D01*
X63021Y-44560D01*
X62993Y-44502D01*
X62993Y-44464D01*
X63021Y-44407D01*
X63050Y-44388D01*
X62993Y-44141D02*
X62993Y-44064D01*
X63021Y-44026D01*
X63079Y-43988D01*
X63193Y-43969D01*
X63393Y-43969D01*
X63507Y-43988D01*
X63564Y-44026D01*
X63593Y-44064D01*
X63593Y-44141D01*
X63564Y-44179D01*
X63507Y-44217D01*
X63393Y-44236D01*
X63193Y-44236D01*
X63079Y-44217D01*
X63021Y-44179D01*
X62993Y-44141D01*
X63593Y-43798D02*
X62993Y-43798D01*
X63593Y-43569D01*
X62993Y-43569D01*
X63593Y-43379D02*
X62993Y-43379D01*
X63593Y-43150D01*
X62993Y-43150D01*
X63650Y-43055D02*
X63650Y-42750D01*
X63593Y-42445D02*
X63593Y-42674D01*
X63593Y-42560D02*
X62993Y-42560D01*
X63079Y-42598D01*
X63136Y-42636D01*
X63164Y-42674D01*
X62993Y-42198D02*
X62993Y-42159D01*
X63021Y-42121D01*
X63050Y-42102D01*
X63107Y-42083D01*
X63221Y-42064D01*
X63364Y-42064D01*
X63479Y-42083D01*
X63536Y-42102D01*
X63564Y-42121D01*
X63593Y-42159D01*
X63593Y-42198D01*
X63564Y-42236D01*
X63536Y-42255D01*
X63479Y-42274D01*
X63364Y-42293D01*
X63221Y-42293D01*
X63107Y-42274D01*
X63050Y-42255D01*
X63021Y-42236D01*
X62993Y-42198D01*
G54D19*
X72225Y-33766D02*
X71544Y-33766D01*
X71544Y-33603D01*
X71577Y-33562D01*
X71609Y-33542D01*
X71674Y-33522D01*
X71771Y-33522D01*
X71836Y-33542D01*
X71868Y-33562D01*
X71901Y-33603D01*
X71901Y-33766D01*
X71609Y-33358D02*
X71577Y-33338D01*
X71544Y-33297D01*
X71544Y-33195D01*
X71577Y-33155D01*
X71609Y-33134D01*
X71674Y-33114D01*
X71739Y-33114D01*
X71836Y-33134D01*
X72225Y-33379D01*
X72225Y-33114D01*
X72225Y-37266D02*
X71544Y-37266D01*
X71544Y-37103D01*
X71577Y-37062D01*
X71609Y-37042D01*
X71674Y-37022D01*
X71771Y-37022D01*
X71836Y-37042D01*
X71868Y-37062D01*
X71901Y-37103D01*
X71901Y-37266D01*
X71544Y-36879D02*
X71544Y-36614D01*
X71804Y-36757D01*
X71804Y-36695D01*
X71836Y-36655D01*
X71868Y-36634D01*
X71933Y-36614D01*
X72095Y-36614D01*
X72160Y-36634D01*
X72193Y-36655D01*
X72225Y-36695D01*
X72225Y-36818D01*
X72193Y-36858D01*
X72160Y-36879D01*
X72225Y-43266D02*
X71544Y-43266D01*
X71544Y-43103D01*
X71577Y-43062D01*
X71609Y-43042D01*
X71674Y-43022D01*
X71771Y-43022D01*
X71836Y-43042D01*
X71868Y-43062D01*
X71901Y-43103D01*
X71901Y-43266D01*
X72225Y-42614D02*
X72225Y-42858D01*
X72225Y-42736D02*
X71544Y-42736D01*
X71641Y-42777D01*
X71706Y-42818D01*
X71739Y-42858D01*
G54D11*
X62379Y-45450D02*
X62402Y-45364D01*
X62402Y-45221D01*
X62379Y-45164D01*
X62355Y-45135D01*
X62307Y-45107D01*
X62260Y-45107D01*
X62212Y-45135D01*
X62188Y-45164D01*
X62164Y-45221D01*
X62140Y-45335D01*
X62117Y-45393D01*
X62093Y-45421D01*
X62045Y-45450D01*
X61998Y-45450D01*
X61950Y-45421D01*
X61926Y-45393D01*
X61902Y-45335D01*
X61902Y-45193D01*
X61926Y-45107D01*
X61902Y-44907D02*
X62402Y-44764D01*
X62045Y-44650D01*
X62402Y-44536D01*
X61902Y-44393D01*
X61950Y-44193D02*
X61926Y-44164D01*
X61902Y-44107D01*
X61902Y-43964D01*
X61926Y-43907D01*
X61950Y-43878D01*
X61998Y-43850D01*
X62045Y-43850D01*
X62117Y-43878D01*
X62402Y-44221D01*
X62402Y-43850D01*
X57402Y-46335D02*
X56902Y-46335D01*
X56902Y-46192D01*
X56926Y-46107D01*
X56974Y-46049D01*
X57021Y-46021D01*
X57117Y-45992D01*
X57188Y-45992D01*
X57283Y-46021D01*
X57331Y-46049D01*
X57379Y-46107D01*
X57402Y-46192D01*
X57402Y-46335D01*
X57402Y-45735D02*
X56902Y-45735D01*
X57402Y-45449D02*
X56902Y-45449D01*
X56902Y-45221D01*
X56926Y-45163D01*
X56950Y-45135D01*
X56998Y-45106D01*
X57069Y-45106D01*
X57117Y-45135D01*
X57140Y-45163D01*
X57164Y-45221D01*
X57164Y-45449D01*
X57379Y-44878D02*
X57402Y-44792D01*
X57402Y-44649D01*
X57379Y-44592D01*
X57355Y-44563D01*
X57307Y-44535D01*
X57260Y-44535D01*
X57212Y-44563D01*
X57188Y-44592D01*
X57164Y-44649D01*
X57140Y-44763D01*
X57117Y-44821D01*
X57093Y-44849D01*
X57045Y-44878D01*
X56998Y-44878D01*
X56950Y-44849D01*
X56926Y-44821D01*
X56902Y-44763D01*
X56902Y-44621D01*
X56926Y-44535D01*
X57450Y-44421D02*
X57450Y-43964D01*
X56902Y-43707D02*
X56902Y-43650D01*
X56926Y-43593D01*
X56950Y-43564D01*
X56998Y-43535D01*
X57093Y-43507D01*
X57212Y-43507D01*
X57307Y-43535D01*
X57355Y-43564D01*
X57379Y-43593D01*
X57402Y-43650D01*
X57402Y-43707D01*
X57379Y-43764D01*
X57355Y-43793D01*
X57307Y-43821D01*
X57212Y-43850D01*
X57093Y-43850D01*
X56998Y-43821D01*
X56950Y-43793D01*
X56926Y-43764D01*
X56902Y-43707D01*
X57069Y-42993D02*
X57402Y-42993D01*
X56879Y-43136D02*
X57236Y-43279D01*
X57236Y-42907D01*
G54D13*
X72060Y-28362D02*
X71831Y-28362D01*
X71945Y-28362D02*
X71945Y-27962D01*
X71907Y-28019D01*
X71869Y-28057D01*
X71831Y-28076D01*
X72231Y-28362D02*
X72231Y-27962D01*
X72384Y-27962D01*
X72422Y-27981D01*
X72441Y-28000D01*
X72460Y-28038D01*
X72460Y-28095D01*
X72441Y-28133D01*
X72422Y-28152D01*
X72384Y-28171D01*
X72231Y-28171D01*
X72631Y-28362D02*
X72631Y-27962D01*
X72821Y-28362D02*
X72821Y-27962D01*
X73050Y-28362D01*
X73050Y-27962D01*
X72060Y-46512D02*
X71831Y-46512D01*
X71945Y-46512D02*
X71945Y-46112D01*
X71907Y-46169D01*
X71869Y-46207D01*
X71831Y-46226D01*
X72231Y-46512D02*
X72231Y-46112D01*
X72384Y-46112D01*
X72422Y-46131D01*
X72441Y-46150D01*
X72460Y-46188D01*
X72460Y-46245D01*
X72441Y-46283D01*
X72422Y-46302D01*
X72384Y-46321D01*
X72231Y-46321D01*
X72631Y-46512D02*
X72631Y-46112D01*
X72821Y-46512D02*
X72821Y-46112D01*
X73050Y-46512D01*
X73050Y-46112D01*
X41610Y-46512D02*
X41381Y-46512D01*
X41495Y-46512D02*
X41495Y-46112D01*
X41457Y-46169D01*
X41419Y-46207D01*
X41381Y-46226D01*
X41781Y-46512D02*
X41781Y-46112D01*
X41934Y-46112D01*
X41972Y-46131D01*
X41991Y-46150D01*
X42010Y-46188D01*
X42010Y-46245D01*
X41991Y-46283D01*
X41972Y-46302D01*
X41934Y-46321D01*
X41781Y-46321D01*
X42181Y-46512D02*
X42181Y-46112D01*
X42371Y-46512D02*
X42371Y-46112D01*
X42600Y-46512D01*
X42600Y-46112D01*
X41610Y-28362D02*
X41381Y-28362D01*
X41495Y-28362D02*
X41495Y-27962D01*
X41457Y-28019D01*
X41419Y-28057D01*
X41381Y-28076D01*
X41781Y-28362D02*
X41781Y-27962D01*
X41934Y-27962D01*
X41972Y-27981D01*
X41991Y-28000D01*
X42010Y-28038D01*
X42010Y-28095D01*
X41991Y-28133D01*
X41972Y-28152D01*
X41934Y-28171D01*
X41781Y-28171D01*
X42181Y-28362D02*
X42181Y-27962D01*
X42371Y-28362D02*
X42371Y-27962D01*
X42600Y-28362D01*
X42600Y-27962D01*
G54D14*
X64567Y-47793D02*
X64624Y-47812D01*
X64720Y-47812D01*
X64758Y-47793D01*
X64777Y-47774D01*
X64796Y-47736D01*
X64796Y-47698D01*
X64777Y-47660D01*
X64758Y-47640D01*
X64720Y-47621D01*
X64643Y-47602D01*
X64605Y-47583D01*
X64586Y-47564D01*
X64567Y-47526D01*
X64567Y-47488D01*
X64586Y-47450D01*
X64605Y-47431D01*
X64643Y-47412D01*
X64739Y-47412D01*
X64796Y-47431D01*
X64929Y-47412D02*
X65024Y-47812D01*
X65101Y-47526D01*
X65177Y-47812D01*
X65272Y-47412D01*
X65634Y-47812D02*
X65405Y-47812D01*
X65519Y-47812D02*
X65519Y-47412D01*
X65481Y-47469D01*
X65443Y-47507D01*
X65405Y-47526D01*
X64605Y-47112D02*
X64471Y-46921D01*
X64376Y-47112D02*
X64376Y-46712D01*
X64529Y-46712D01*
X64567Y-46731D01*
X64586Y-46750D01*
X64605Y-46788D01*
X64605Y-46845D01*
X64586Y-46883D01*
X64567Y-46902D01*
X64529Y-46921D01*
X64376Y-46921D01*
X64929Y-47093D02*
X64891Y-47112D01*
X64814Y-47112D01*
X64776Y-47093D01*
X64757Y-47055D01*
X64757Y-46902D01*
X64776Y-46864D01*
X64814Y-46845D01*
X64891Y-46845D01*
X64929Y-46864D01*
X64948Y-46902D01*
X64948Y-46940D01*
X64757Y-46979D01*
X65100Y-47093D02*
X65138Y-47112D01*
X65214Y-47112D01*
X65253Y-47093D01*
X65272Y-47055D01*
X65272Y-47036D01*
X65253Y-46998D01*
X65214Y-46979D01*
X65157Y-46979D01*
X65119Y-46960D01*
X65100Y-46921D01*
X65100Y-46902D01*
X65119Y-46864D01*
X65157Y-46845D01*
X65214Y-46845D01*
X65253Y-46864D01*
X65596Y-47093D02*
X65558Y-47112D01*
X65481Y-47112D01*
X65443Y-47093D01*
X65424Y-47055D01*
X65424Y-46902D01*
X65443Y-46864D01*
X65481Y-46845D01*
X65558Y-46845D01*
X65596Y-46864D01*
X65615Y-46902D01*
X65615Y-46940D01*
X65424Y-46979D01*
X65729Y-46845D02*
X65881Y-46845D01*
X65786Y-46712D02*
X65786Y-47055D01*
X65805Y-47093D01*
X65843Y-47112D01*
X65881Y-47112D01*
G54D11*
X41895Y-38480D02*
X42323Y-38480D01*
X42409Y-38508D01*
X42466Y-38565D01*
X42495Y-38651D01*
X42495Y-38708D01*
X42495Y-37880D02*
X42495Y-38223D01*
X42495Y-38051D02*
X41895Y-38051D01*
X41981Y-38108D01*
X42038Y-38166D01*
X42066Y-38223D01*
G54D14*
X45049Y-39594D02*
X44862Y-39725D01*
X45049Y-39819D02*
X44655Y-39819D01*
X44655Y-39669D01*
X44674Y-39632D01*
X44693Y-39613D01*
X44731Y-39594D01*
X44787Y-39594D01*
X44824Y-39613D01*
X44843Y-39632D01*
X44862Y-39669D01*
X44862Y-39819D01*
X44655Y-39313D02*
X44937Y-39313D01*
X44993Y-39331D01*
X45031Y-39369D01*
X45049Y-39425D01*
X45049Y-39463D01*
X44787Y-38956D02*
X45049Y-38956D01*
X44637Y-39050D02*
X44918Y-39144D01*
X44918Y-38900D01*
X44655Y-38563D02*
X44655Y-38750D01*
X44843Y-38769D01*
X44824Y-38750D01*
X44806Y-38713D01*
X44806Y-38619D01*
X44824Y-38581D01*
X44843Y-38563D01*
X44881Y-38544D01*
X44974Y-38544D01*
X45012Y-38563D01*
X45031Y-38581D01*
X45049Y-38619D01*
X45049Y-38713D01*
X45031Y-38750D01*
X45012Y-38769D01*
X44899Y-38375D02*
X44899Y-38075D01*
X45049Y-37887D02*
X44655Y-37887D01*
X44937Y-37756D01*
X44655Y-37625D01*
X45049Y-37625D01*
X44937Y-37456D02*
X44937Y-37268D01*
X45049Y-37493D02*
X44655Y-37362D01*
X45049Y-37231D01*
X44674Y-36893D02*
X44655Y-36930D01*
X44655Y-36987D01*
X44674Y-37043D01*
X44712Y-37080D01*
X44749Y-37099D01*
X44824Y-37118D01*
X44881Y-37118D01*
X44956Y-37099D01*
X44993Y-37080D01*
X45031Y-37043D01*
X45049Y-36987D01*
X45049Y-36949D01*
X45031Y-36893D01*
X45012Y-36874D01*
X44881Y-36874D01*
X44881Y-36949D01*
M02*
